<svg xmlns="http://www.w3.org/2000/svg" xmlns:xlink="http://www.w3.org/1999/xlink" width="391" height="400" viewBox="0 0 391 400">
  <defs>
    <polygon id="d-pine_green-a" points="0 .04 390.859 .04 390.859 400 0 400"/>
  </defs>
  <g fill="none" fill-rule="evenodd">
    <mask id="d-pine_green-b" fill="#fff">
      <use xlink:href="#d-pine_green-a"/>
    </mask>
    <path fill="#13603B" d="M173.144,0 L0,0 L0,7.43 C15.43,16.57 22.289,27.43 22.289,70.855 L22.289,329.145 C22.289,372.57 15.43,383.43 0,392.57 L0,400 L162.289,400 C166.548,400 170.744,399.918 174.889,399.774 C176.43,383.355 178.17,359.578 179.296,335.818 L179.907,319.167 C179.818,318.241 179.378,317.57 178.329,318.674 C164.267,333.467 163.537,331.182 157.715,329.478 C151.207,327.574 131.562,320.422 128.644,318.393 C126.033,316.582 126.781,315.622 129.759,314.367 C144.589,308.115 176.056,294.093 180.463,292.241 C180.767,292.115 180.971,291.818 180.981,291.489 L181.351,282.048 C181.374,281.437 180.774,281 180.203,281.215 C172.529,284.078 133.389,300.233 127.644,302.359 C121.318,304.7 117.733,304.396 112.707,300.918 C108.851,298.252 96.159,283.322 94.056,279.763 C93.27,278.433 92.422,277.137 94.934,276.604 C97.318,276.096 173.451,260.645 181.566,259.119 C181.955,259.048 182.24,258.715 182.256,258.318 L182.63,249.063 C182.651,248.526 182.182,248.104 181.652,248.189 C172.952,249.537 113.818,259.978 107.237,261.056 C100.152,262.215 98.603,259.507 96.155,256.415 C93.707,253.322 85.485,235.396 84.566,233.7 C82.893,230.607 82.748,229.252 85.711,229.063 C110.481,227.467 174.93,223.663 182.922,223.17 C183.355,223.141 183.7,222.789 183.719,222.352 L184.037,213.704 C184.056,213.208 183.655,212.8 183.159,212.815 C174.855,213.089 108.293,215.119 103.863,214.97 C99.359,214.822 97.422,214.326 94.974,209.174 C92.77,204.537 89.977,184.685 89.719,182.5 C89.526,180.844 89.337,179.53 92.188,180.056 C114.822,184.245 175.756,191.004 183.955,192.022 C184.452,192.082 184.889,191.708 184.911,191.208 L185.219,183.237 C185.236,182.804 184.93,182.426 184.5,182.359 C177.521,181.271 121.785,172.9 115.622,171.774 C108.992,170.563 107.811,169.311 106.267,164.481 C105.203,161.159 104.066,144.841 104.044,143.096 C104.022,141.278 103.87,140.208 106.341,140.93 C143.971,151.941 178.696,160.711 185.004,162.292 C185.529,162.426 186.041,162.037 186.062,161.496 L186.363,153.804 C186.378,153.404 186.118,153.048 185.733,152.944 C179.729,151.333 134.318,139.145 130.525,137.874 C126.215,136.43 122.581,134.422 121.763,129.4 C120.936,124.333 120.837,113.459 120.989,111.044 C121.144,108.589 121.452,107.944 123.481,108.944 C140.562,117.378 179.012,131.767 186,134.363 C186.544,134.567 187.126,134.178 187.147,133.596 L187.436,126.152 C187.448,125.796 187.24,125.467 186.907,125.33 C182.259,123.43 149.629,110.078 144.233,107.737 C138.992,105.459 137.985,103.622 137.474,98.826 C137.196,96.215 137.1,89.044 137.729,84.715 C138.126,81.989 137.926,81.318 142.066,83.781 C150.363,88.715 180.548,104.434 186.934,107.748 C187.489,108.037 188.155,107.648 188.178,107.022 L188.463,99.692 C188.474,99.367 188.304,99.063 188.015,98.907 C184.76,97.163 165.448,86.822 160.926,84.348 C155.048,81.126 153.385,78.637 153.255,75.878 C153.015,70.763 153.533,64.763 153.837,62.596 C154.366,58.789 155.219,58.281 157.729,60.281 C168.603,68.956 183.504,78.722 187.881,81.556 C188.434,81.915 189.167,81.53 189.192,80.867 L189.448,74.315 C189.459,74.044 189.341,73.785 189.13,73.615 C186.585,71.581 170.463,59.881 170.463,59.881 C170.463,59.881 168.349,57.952 168.367,55.948 C168.396,52.348 169.622,45.137 170.074,43.867 C170.648,42.252 171.004,41.371 172.76,43.126 C180.647,51.011 185.607,55.089 188.849,57.759 C189.748,58.5 190.085,58.644 190.085,57.885 C190.085,50.374 186.671,35.489 194.085,31.393 C194.207,31.326 194.345,31.292 194.481,31.292 C194.618,31.289 194.759,31.326 194.881,31.393 C202.296,35.489 198.882,50.374 198.882,57.885 C198.882,58.644 199.219,58.5 200.118,57.759 C203.359,55.089 208.318,51.011 216.207,43.126 C217.963,41.371 218.318,42.252 218.892,43.867 C219.349,45.137 220.57,52.348 220.6,55.948 C220.619,57.952 218.504,59.881 218.504,59.881 C218.504,59.881 202.382,71.581 199.837,73.615 C199.626,73.785 199.507,74.044 199.518,74.315 L199.774,80.867 C199.8,81.53 200.533,81.915 201.089,81.556 C205.463,78.722 220.362,68.956 231.237,60.281 C233.748,58.281 234.6,58.789 235.133,62.596 C235.434,64.763 235.951,70.763 235.715,75.878 C235.585,78.637 233.922,81.126 228.045,84.348 C223.518,86.822 204.207,97.163 200.952,98.907 C200.663,99.063 200.492,99.367 200.504,99.692 L200.789,107.022 C200.811,107.648 201.477,108.037 202.033,107.748 C208.418,104.434 238.603,88.715 246.9,83.781 C251.041,81.318 250.841,81.989 251.237,84.715 C251.866,89.044 251.77,96.215 251.492,98.826 C250.981,103.622 249.974,105.459 244.733,107.737 C239.337,110.078 206.707,123.43 202.059,125.33 C201.725,125.467 201.518,125.796 201.533,126.152 L201.818,133.596 C201.845,134.178 202.422,134.567 202.967,134.363 C209.956,131.767 248.403,117.378 265.485,108.944 C267.515,107.944 267.822,108.589 267.977,111.044 C268.13,113.459 268.029,124.333 267.204,129.4 C266.385,134.422 262.756,136.43 258.44,137.874 C254.652,139.145 209.237,151.333 203.233,152.944 C202.848,153.048 202.589,153.404 202.603,153.804 L202.903,161.496 C202.926,162.037 203.437,162.426 203.963,162.292 C210.27,160.711 244.996,151.941 282.626,140.93 C285.1,140.208 284.948,141.278 284.922,143.096 C284.9,144.841 283.763,161.159 282.7,164.481 C281.155,169.311 279.975,170.563 273.348,171.774 C267.185,172.9 211.444,181.271 204.467,182.359 C204.037,182.426 203.733,182.804 203.748,183.237 L204.056,191.208 C204.078,191.708 204.515,192.082 205.011,192.022 C213.211,191.004 274.144,184.245 296.781,180.056 C299.634,179.53 299.44,180.844 299.248,182.5 C298.992,184.685 296.196,204.537 293.992,209.174 C291.544,214.326 289.611,214.822 285.103,214.97 C280.678,215.119 214.111,213.089 205.808,212.815 C205.311,212.8 204.911,213.208 204.933,213.704 L205.248,222.352 C205.267,222.789 205.611,223.141 206.048,223.17 C214.041,223.663 278.485,227.467 303.255,229.063 C306.222,229.252 306.074,230.607 304.4,233.7 C303.481,235.396 295.259,253.322 292.811,256.415 C290.363,259.507 288.818,262.215 281.729,261.056 C275.147,259.978 216.018,249.537 207.314,248.189 C206.785,248.104 206.314,248.526 206.337,249.063 L206.711,258.318 C206.729,258.715 207.011,259.048 207.404,259.119 C215.515,260.645 291.648,276.096 294.033,276.604 C296.548,277.137 295.696,278.433 294.911,279.763 C292.811,283.322 280.115,298.252 276.259,300.918 C271.233,304.396 267.648,304.7 261.322,302.359 C255.578,300.233 216.437,284.078 208.767,281.215 C208.192,281 207.596,281.437 207.618,282.048 L207.985,291.489 C207.996,291.818 208.2,292.115 208.508,292.241 C212.911,294.093 244.378,308.115 259.211,314.367 C262.184,315.622 262.934,316.582 260.326,318.393 C257.404,320.422 237.759,327.574 231.248,329.478 C225.43,331.182 224.7,333.467 210.637,318.674 C209.589,317.57 209.151,318.241 209.059,319.167 L209.674,335.818 C210.715,357.878 212.289,379.948 213.744,396.137 C329.626,377.889 390.859,296.648 390.859,190.285 C390.859,81.145 316.574,0 173.144,0" mask="url(#d-pine_green-b)"/>
  </g>
</svg>
