<svg xmlns="http://www.w3.org/2000/svg" xmlns:xlink="http://www.w3.org/1999/xlink" width="668" height="71" viewBox="0 0 668 71">
  <defs>
    <polygon id="dartmouth_wordmark_white-a" points=".06 .48 65.549 .48 65.549 67.562 .06 67.562"/>
    <polygon id="dartmouth_wordmark_white-c" points=".935 .947 220.005 .947 220.005 70.94 .935 70.94"/>
  </defs>
  <g fill="none" fill-rule="evenodd">
    <g transform="translate(0 2)">
      <mask id="dartmouth_wordmark_white-b" fill="#fff">
        <use xlink:href="#dartmouth_wordmark_white-a"/>
      </mask>
      <path fill="#FFFFFE" d="M26.45,60.279 L14.279,60.279 L14.279,7.763 L27.312,7.763 C44.753,7.763 54.337,16.58 54.337,34.788 C54.337,50.6 45.616,60.279 26.45,60.279 Z M29.037,0.48 L0,0.48 L0,1.726 C2.587,3.259 3.737,5.08 3.737,12.363 L3.737,55.679 C3.737,62.962 2.587,64.784 0,66.317 L0,67.562 L27.216,67.562 C52.516,67.562 65.549,52.613 65.549,32.2 C65.549,13.8 52.899,0.48 29.037,0.48 Z" mask="url(#dartmouth_wordmark_white-b)"/>
    </g>
    <path fill="#FFFFFE" d="M249.331 68.317C246.456 66.688 245.114 64.771 245.114 57.201L245.114 9.763 253.26 9.763C263.706 9.763 265.718 11.296 268.497 14.746L269.743 14.363 267.73 1.617C263.802 2.097 258.626 2.48 252.11 2.48L227.481 2.48C220.965 2.48 215.79 2.097 211.86 1.617L209.848 14.363 211.094 14.746C213.873 11.296 215.886 9.763 226.331 9.763L234.477 9.763 234.477 57.201C234.477 64.771 233.135 66.688 230.26 68.317L230.26 69.562 249.331 69.562 249.331 68.317zM290.634 68.317C287.664 67.071 286.418 64.771 287.376 57.392L291.785 24.042 313.634 68.7 317.659 68.7 339.796 23.946 343.917 57.775C344.78 64.962 343.822 67.071 341.042 68.317L341.042 69.562 359.25 69.562 359.25 68.317C356.758 66.975 355.705 64.962 354.746 58.159L347.08 1.713 342.192 1.713 317.18 53.367 292.168 1.713 287.28 1.713 279.326 57.775C278.368 64.771 276.931 66.879 274.151 68.317L274.151 69.562 290.634 69.562 290.634 68.317zM164.899 68.317C162.791 67.262 161.162 64.962 161.162 57.679L161.162 9.476 169.883 9.476C180.52 9.476 185.887 13.596 185.887 22.509 185.887 30.654 180.808 35.733 171.128 35.733L164.804 35.733 164.804 36.692 167.774 42.73 170.649 42.73C173.812 42.73 174.77 43.784 179.466 50.108L191.445 66.208C193.362 68.795 194.703 69.562 197.195 69.562L208.982 69.562 208.982 68.317C206.491 67.358 204.574 65.921 199.974 59.979L191.732 49.438C187.324 43.879 184.929 41.1 182.054 39.95 191.924 37.363 197.003 30.367 197.003 21.934 197.003 9.572 188.762 2.48 170.937 2.48L146.787 2.48 146.787 3.726C148.895 4.78 150.525 7.08 150.525 14.363L150.525 57.679C150.525 64.962 148.895 67.262 146.787 68.317L146.787 69.562 164.899 69.562 164.899 68.317M90.919 42.826L101.653 18.292 112.386 42.826 90.919 42.826zM131.265 59.212L105.294 1.713 101.365 1.713 75.395 59.212C72.807 64.867 71.466 66.975 68.591 68.317L68.591 69.562 85.84 69.562 85.84 68.317C82.391 66.975 81.241 64.867 84.307 57.871L87.853 49.725 115.453 49.725 118.998 57.871C122.065 64.867 121.011 66.975 117.944 68.317L117.944 69.562 137.59 69.562 137.59 68.317C135.098 66.975 133.852 64.867 131.265 59.212zM618.425 3.726L618.425 2.48 600.313 2.48 600.313 3.726C602.901 5.259 604.051 7.08 604.051 14.363L604.051 57.679C604.051 64.962 602.901 66.784 600.313 68.317L600.313 69.562 618.425 69.562 618.425 68.317C615.838 66.784 614.688 64.962 614.688 57.679L614.688 38.992 653.117 38.992 653.117 57.679C653.117 64.962 651.967 66.784 649.379 68.317L649.379 69.562 667.492 69.562 667.492 68.317C664.904 66.784 663.754 64.962 663.754 57.679L663.754 14.363C663.754 7.08 664.904 5.259 667.492 3.726L667.492 2.48 649.379 2.48 649.379 3.726C651.967 5.259 653.117 7.08 653.117 14.363L653.117 31.613 614.688 31.613 614.688 14.363C614.688 7.08 615.838 5.259 618.425 3.726"/>
    <g transform="translate(369)">
      <mask id="dartmouth_wordmark_white-d" fill="#fff">
        <use xlink:href="#dartmouth_wordmark_white-c"/>
      </mask>
      <path fill="#FFFFFE" d="M199.593 68.317C196.718 66.688 195.376 64.771 195.376 57.201L195.376 9.763 203.522 9.763C213.968 9.763 215.98 11.296 218.759 14.746L220.005 14.363 217.993 1.617C214.064 2.097 208.889 2.48 202.372 2.48L177.744 2.48C171.227 2.48 166.052 2.097 162.122 1.617L160.11 14.363 161.356 14.746C164.135 11.296 166.148 9.763 176.593 9.763L184.739 9.763 184.739 57.201C184.739 64.771 183.397 66.688 180.522 68.317L180.522 69.562 199.593 69.562 199.593 68.317M133.088 3.726C135.867 5.355 137.304 7.271 137.304 14.842L137.304 43.496C137.304 55.762 130.692 62.567 119.096 62.567 107.021 62.567 100.505 55.955 100.505 44.167L100.505 14.363C100.505 7.08 101.655 5.259 104.243 3.726L104.243 2.48 86.13 2.48 86.13 3.726C88.717 5.259 89.868 7.08 89.868 14.363L89.868 44.837C89.868 61.321 100.122 71 117.659 71 135.1 71 145.451 61.225 145.451 43.496L145.451 14.842C145.451 7.271 146.888 5.355 149.666 3.726L149.666 2.48 133.088 2.48 133.088 3.726M37.352 63.621C23.168 63.621 12.244 51.258 12.244 34.392 12.244 18.292 21.54 8.326 35.531 8.326 49.714 8.326 60.639 20.688 60.639 37.554 60.639 53.655 51.343 63.621 37.352 63.621zM36.393.947C14.926.947.935 17.526.935 36.5.935 54.517 13.777 71 36.489 71 57.956 71 71.947 54.42 71.947 35.446 71.947 17.43 59.105.947 36.393.947z" mask="url(#dartmouth_wordmark_white-d)"/>
    </g>
  </g>
</svg>
