<?xml version="1.0" encoding="utf-8"?>
<!-- Generator: Adobe Illustrator 22.1.0, SVG Export Plug-In . SVG Version: 6.00 Build 0)  -->
<svg version="1.1" id="Layer_1" xmlns="http://www.w3.org/2000/svg" xmlns:xlink="http://www.w3.org/1999/xlink" x="0px" y="0px"
	 viewBox="0 0 1200 148.4" style="enable-background:new 0 0 1200 148.4;" xml:space="preserve">
<style type="text/css">
	.st0{fill:#003846;}
	.st1{fill:#006937;}
	.st2{fill:none;stroke:#006937;stroke-width:7.5669;stroke-miterlimit:10;}
	.st3{fill:#006A3F;}
</style>
<g>
	<g>
		<path class="st0" d="M179.5,24.2c0,1.6,0.5,2.2,2.4,2.2h1.1V27h-9.6v-0.6h1.1c1.9,0,2.4-0.6,2.4-2.2V9.2h-5.3
			c-1.2,0-1.8,0.7-2.2,3.4h-0.5l0.5-4.9h0.6c0,0.2,0.2,0.3,0.3,0.4c0.2,0.1,0.4,0.1,0.6,0.1h14.7c0.4,0,0.9-0.1,1-0.5h0.6l0.5,4.9
			H187c-0.5-2.7-1-3.4-2.2-3.4h-5.3V24.2z"/>
		<path class="st0" d="M206.4,18v5.8c0,2,0.4,2.7,2.4,2.7h0.1V27h-7.7v-0.6h0.2c1.8,0,2.4-0.5,2.4-2.2V10.8c0-1.6-0.5-2-2.2-2.2V8.1
			h7.3v0.6c-2.2,0-2.5,0.6-2.5,2.9v5.3h12v-6c0-1.6-0.5-2.2-2.4-2.2h-0.6V8.1h7.8v0.6c-1.8,0.1-2.3,0.6-2.3,2.5v12.7
			c0,2.2,0.6,2.7,2.4,2.7h0.3V27H215v-0.6h0.9c2,0,2.4-0.7,2.4-2.3V18H206.4z"/>
		<path class="st0" d="M242.8,18.6l-1.8,4.8c-0.2,0.6-0.6,1.5-0.6,1.9c0,0.8,0.8,1.1,2.5,1.1h0.5V27h-7.1v-0.6c2,0,2.3-0.4,3.3-3
			l5.6-15.2l-0.3-0.7h2.7l6.4,16.9c0.6,1.6,1.2,1.9,2.8,1.9V27h-8.4v-0.6h0.8c1.7,0,2.4-0.2,2.4-1c0-0.5-0.2-0.9-0.3-1.3l-2-5.6
			H242.8z M245.9,10.2l-2.6,7.1h5.3L245.9,10.2z"/>
		<path class="st0" d="M281.4,10.8c1-1.7,0.4-2.2-1.6-2.2V8.1h6.9v0.6c-2.1,0.1-3,1-3.8,2.4l-5.1,8.6v4.6c0,1.6,0.6,2.3,2.4,2.3h0.4
			V27h-8.4v-0.6h0.6c1.9,0,2.4-0.7,2.4-2.2V20l-5.4-8.5c-1.5-2.4-2.2-2.8-4.2-2.8V8.1h8.1v0.6c-2.4,0-2.5,0.6-1.6,2l4.9,7.5
			L281.4,10.8z"/>
		<path class="st0" d="M313.2,20.2h-0.6c-0.2-2.2-0.8-2.4-2.1-2.4h-5.2v6.5c0,1.4,0.5,1.7,1.7,1.7h4.7c2.1,0,2.8-0.8,3.5-3.4h0.6
			l-0.5,4.5h-16.2v-0.6h0.9c2.4,0,2.9-0.7,2.9-2.5V11.1c0-1.7-0.4-2.4-2.4-2.4h-0.7V8.1h14.7l0.2,4.2h-0.5c-0.4-2.6-1.2-3.1-2.3-3.1
			h-6.4v7.5h5.5c1.1,0,1.6-0.5,1.8-2.3h0.6V20.2z"/>
		<path class="st0" d="M336.1,24.2c0,1.8,0.7,2.3,2.5,2.3h0.7V27h-8.7v-0.6h0.5c1.8,0,2.5-0.5,2.5-2.5V11.1c0-1.9-0.5-2.4-2.3-2.4
			h-0.7V8.1c0.7,0,2.6-0.1,3.9-0.2c1.3-0.1,1.9-0.1,3.9-0.1c5.7,0,8.2,2.3,8.2,5.4c0,2.3-1.6,4.2-4.1,4.9c1.1,0.9,2.1,1.7,3.5,3.2
			l2.4,2.4c1.8,1.8,3.7,2.9,6,3.1v0.5c-5.3,0.2-6.7-0.9-9.4-3.6l-2-2c-1.4-1.3-2.4-2.2-3.2-2.7c-0.8,0-1.3,0.1-2.1,0.1
			c-0.7,0-1.1,0-1.6-0.1V24.2z M336.1,18.4c0.7,0.1,1.2,0.1,1.9,0.1c3.4,0,5.7-1.4,5.7-5.1c0-2.8-1.3-5-6.1-5c-0.6,0-1,0-1.6,0.1
			V18.4z"/>
		<path class="st0" d="M389.9,22.4c0.6,2.7,2.8,4.3,5.2,4.3c2,0,4.2-1.2,4.2-3.6c0-4.4-9.8-5.7-9.8-11.1c0-2.5,2.3-4.4,5.4-4.4
			c2.6,0,3.1,0.8,4.2,0.8c0.2,0,0.4-0.1,0.5-0.3h0.5l0.5,3.9h-0.5c-0.9-2.2-2.8-3.6-4.9-3.6c-2,0-3.4,1.2-3.4,2.9
			c0,4.3,9.8,5.5,9.8,11.1c0,3-2.7,5.2-6.2,5.2c-1.7,0-3.8-0.8-4.2-0.8c-0.3,0-0.5,0.2-0.6,0.3H390l-0.6-4.6H389.9z"/>
		<path class="st0" d="M434.5,13.1c-1-2.8-3.6-4.7-7-4.7c-5.1,0-8.3,3.7-8.3,8.8c0,5.5,4,9.6,8.6,9.6c2.4,0,5.4-0.8,7.4-4.5h0.6
			c-0.4,1.4-1.2,3.3-2,4.5c-2-0.3-3.3,0.8-6.9,0.8c-6.2,0-10.6-4.1-10.6-9.7c0-5.9,4.6-10.2,11-10.2c3.8,0,5.5,1.2,6.4,1.2
			c0.3,0,0.5-0.1,0.5-0.2h0.5l0.3,4.4H434.5z"/>
		<path class="st0" d="M455,18v5.8c0,2,0.4,2.7,2.4,2.7h0.1V27h-7.7v-0.6h0.2c1.8,0,2.4-0.5,2.4-2.2V10.8c0-1.6-0.5-2-2.2-2.2V8.1
			h7.3v0.6c-2.2,0-2.5,0.6-2.5,2.9v5.3h12v-6c0-1.6-0.5-2.2-2.4-2.2H464V8.1h7.8v0.6c-1.8,0.1-2.3,0.6-2.3,2.5v12.7
			c0,2.2,0.6,2.7,2.4,2.7h0.3V27h-8.6v-0.6h0.9c2,0,2.4-0.7,2.4-2.3V18H455z"/>
		<path class="st0" d="M497.7,27.5c-6,0-11-3.8-11-9.6c0-6.1,4.7-10.4,11.2-10.4c5.8,0,10.7,3.9,10.7,9.4
			C508.6,23.2,503.6,27.5,497.7,27.5z M497.1,8.4c-5.4,0-7.5,5-7.5,8.7c0,5.7,3.9,9.7,8.8,9.7c5,0,7.4-4.4,7.4-8.7
			C505.7,12.4,502.1,8.4,497.1,8.4z"/>
		<path class="st0" d="M534.7,27.5c-6,0-11-3.8-11-9.6c0-6.1,4.7-10.4,11.2-10.4c5.8,0,10.7,3.9,10.7,9.4
			C545.5,23.2,540.6,27.5,534.7,27.5z M534,8.4c-5.4,0-7.5,5-7.5,8.7c0,5.7,3.9,9.7,8.8,9.7c5,0,7.4-4.4,7.4-8.7
			C542.7,12.4,539.1,8.4,534,8.4z"/>
		<path class="st0" d="M573.2,27h-13.6v-0.6h1c1.4,0,1.9-0.5,1.9-2V10.9c0-1.6-0.5-2.3-2.4-2.3h-0.4V8.1h9v0.6h-1.1
			c-2,0-2.5,0.2-2.5,2.1v14.1c0,0.8,0.3,1.1,1.2,1.1h4.5c1.8,0,2.4-0.7,4.3-3.4h0.5L573.2,27z"/>
		<path class="st0" d="M622.7,27.5c-6,0-11-3.8-11-9.6c0-6.1,4.7-10.4,11.2-10.4c5.8,0,10.7,3.9,10.7,9.4
			C633.6,23.2,628.6,27.5,622.7,27.5z M622.1,8.4c-5.4,0-7.5,5-7.5,8.7c0,5.7,3.9,9.7,8.8,9.7c5,0,7.4-4.4,7.4-8.7
			C630.7,12.4,627.1,8.4,622.1,8.4z"/>
		<path class="st0" d="M660.8,19.7h-0.5c-0.1-1.8-0.7-2.3-2.2-2.3h-5.7v6.7c0,1.7,0.4,2.4,2.7,2.4V27h-7.4v-0.6
			c1.9-0.1,2.2-0.5,2.2-3v-12c0-2-0.2-2.8-2.3-2.9V8.1h13.7v3.6h-0.5c0-1.8-0.6-2.5-2.5-2.5h-5.8v7.2h6c1.1,0,1.7-0.6,1.8-1.9h0.5
			V19.7z"/>
		<path class="st0" d="M196.8,66.4h-1.3c-0.5-4.8-1.8-5.3-4.6-5.3h-11.4v14.4c0,3.1,1.1,3.7,3.7,3.7h10.4c4.7,0,6.2-1.8,7.8-7.6h1.2
			l-1.1,10.1h-35.9v-1.3h1.9c5.4,0,6.4-1.5,6.4-5.5V46.3c0-3.8-0.9-5.4-5.4-5.4h-1.5v-1.3h32.5L200,49h-1.2c-0.9-5.7-2.6-7-5-7
			h-14.3v16.6h12.1c2.4,0,3.6-1.2,3.9-5.1h1.3V66.4z"/>
		<path class="st0" d="M253.2,82.1l-35.1-36.7v29c0,4.9,1.1,5.9,6.8,5.9v1.3h-15.7v-1.3h0.3c4.2,0,5.5-1.4,5.5-4.5V42.6
			c-1.6-1.1-3.3-1.6-5.7-1.7v-1.3H220l31.9,33.2V45.9c0-4.1-1.2-4.9-6.6-5v-1.3h15.8v1.3c-5.1,0-6.2,0.9-6.2,3.5v37.8H253.2z"/>
		<path class="st0" d="M304,78.5c-6.7,3.5-15.3,4.3-18.1,4.3c-14.8,0-21.7-11.4-21.7-21.3c0-10.2,7.1-22.9,23.6-22.9
			c7.2,0,12,2.3,13.5,2.3c0.6,0,1.2-0.1,1.6-0.5h0.9v11h-1.4c-1.8-8.5-7.6-11.1-13.9-11.1c-11.9,0-18,9.9-18,20.8
			c0,13.9,9.8,20,17.5,20c3.1,0,6.6-0.7,10.4-2.6V70c0-3.9-1.4-5.1-5.4-5.1h-2.5v-1.2h18.3v1.2c-3.4,0.2-4.7,1.4-4.7,4.3V78.5z"/>
		<path class="st0" d="M331.9,81.7h-16.4v-1.3c4.2-0.2,5.1-1.3,5.1-5.8V45.7c0-3.7-1.3-4.7-5.1-4.9v-1.3h16.4v1.3
			c-4.3,0-5.8,0.9-5.8,5.5V75c0,4,1.1,5.3,5.8,5.3V81.7z"/>
		<path class="st0" d="M384.6,82.1l-35.1-36.7v29c0,4.9,1.1,5.9,6.8,5.9v1.3h-15.7v-1.3h0.3c4.2,0,5.5-1.4,5.5-4.5V42.6
			c-1.6-1.1-3.3-1.6-5.7-1.7v-1.3h10.6l31.9,33.2V45.9c0-4.1-1.2-4.9-6.6-5v-1.3h15.8v1.3c-5.1,0-6.2,0.9-6.2,3.5v37.8H384.6z"/>
		<path class="st0" d="M430.6,66.4h-1.3c-0.5-4.8-1.8-5.3-4.6-5.3h-11.4v14.4c0,3.1,1.1,3.7,3.7,3.7h10.4c4.7,0,6.2-1.8,7.8-7.6h1.2
			l-1.1,10.1h-35.9v-1.3h1.9c5.4,0,6.4-1.5,6.4-5.5V46.3c0-3.8-0.9-5.4-5.4-5.4h-1.5v-1.3h32.5l0.5,9.4h-1.2c-0.9-5.7-2.6-7-5-7
			h-14.3v16.6h12.1c2.4,0,3.6-1.2,3.9-5.1h1.3V66.4z"/>
		<path class="st0" d="M473.7,66.4h-1.3c-0.5-4.8-1.8-5.3-4.6-5.3h-11.4v14.4c0,3.1,1.1,3.7,3.7,3.7h10.4c4.7,0,6.2-1.8,7.8-7.6h1.2
			l-1.1,10.1h-35.9v-1.3h1.9c5.4,0,6.4-1.5,6.4-5.5V46.3c0-3.8-0.9-5.4-5.4-5.4h-1.5v-1.3h32.5l0.5,9.4h-1.2c-0.9-5.7-2.6-7-5-7
			h-14.3v16.6h12.1c2.4,0,3.6-1.2,3.9-5.1h1.3V66.4z"/>
		<path class="st0" d="M499.8,75.3c0,4.1,1.6,5.1,5.4,5.1h1.6v1.3h-19.2v-1.3h1.2c4,0,5.4-1.1,5.4-5.6V46.3c0-4.2-1.1-5.4-5.1-5.4
			h-1.5v-1.3c1.6,0,5.8-0.3,8.5-0.4c2.8-0.1,4.1-0.2,8.5-0.2c12.5,0,18.1,5.1,18.1,12.1c0,5.1-3.4,9.3-9,11c2.5,2,4.5,3.9,7.7,7
			l5.3,5.3c4,4,9,5.7,12.4,6v1.3c-10,0.5-13.9-1.3-19.9-7.3l-4.5-4.5c-3-3-5.3-4.9-7-6c-1.7,0.1-2.8,0.1-4.6,0.1
			c-1.5,0-2.4-0.1-3.5-0.1V75.3z M499.8,62.6c1.6,0.2,2.6,0.1,4.2,0.1c7.5,0,12.4-3.2,12.4-11.3c0-6.3-2.8-11.2-13.3-11.2
			c-1.3,0-2.2,0-3.4,0.1V62.6z"/>
		<path class="st0" d="M555.7,81.7h-16.4v-1.3c4.2-0.2,5.1-1.3,5.1-5.8V45.7c0-3.7-1.3-4.7-5.1-4.9v-1.3h16.4v1.3
			c-4.3,0-5.8,0.9-5.8,5.5V75c0,4,1.1,5.3,5.8,5.3V81.7z"/>
		<path class="st0" d="M609.2,82.1l-35.1-36.7v29c0,4.9,1.1,5.9,6.8,5.9v1.3h-15.7v-1.3h0.3c4.2,0,5.6-1.4,5.6-4.5V42.6
			c-1.6-1.1-3.3-1.6-5.7-1.7v-1.3h10.6L608,72.8V45.9c0-4.1-1.2-4.9-6.6-5v-1.3h15.8v1.3c-5.1,0-6.2,0.9-6.2,3.5v37.8H609.2z"/>
		<path class="st0" d="M660.5,78.5c-6.7,3.5-15.3,4.3-18.1,4.3c-14.8,0-21.7-11.4-21.7-21.3c0-10.2,7.1-22.9,23.6-22.9
			c7.2,0,12,2.3,13.5,2.3c0.6,0,1.1-0.1,1.6-0.5h0.9v11h-1.4c-1.8-8.5-7.6-11.1-13.9-11.1c-11.9,0-18,9.9-18,20.8
			c0,13.9,9.7,20,17.5,20c3.1,0,6.6-0.7,10.4-2.6V70c0-3.9-1.4-5.1-5.4-5.1H647v-1.2h18.3v1.2c-3.4,0.2-4.7,1.4-4.7,4.3V78.5z"/>
		<path class="st0" d="M174,113.1l-3.1,8.3c-0.4,1-1.1,2.6-1.1,3.3c0,1.4,1.4,2,4.3,2h0.8v1h-12.2v-1c3.4-0.1,4-0.6,5.7-5.2
			l9.6-26.3l-0.5-1.2h4.6l11,29.3c1.1,2.8,2.2,3.3,4.8,3.3v1h-14.5v-1h1.4c3,0,4.1-0.3,4.1-1.8c0-0.8-0.4-1.6-0.6-2.2l-3.5-9.6H174z
			 M179.4,98.5l-4.5,12.3h9.1L179.4,98.5z"/>
		<path class="st0" d="M218.5,122.9c0,2.8,1,3.9,4.2,3.9h2v1H208v-1h2c3.2,0,4.2-1,4.2-3.9V96.8H205c-2.1,0-3.1,1.2-3.9,5.9h-0.9
			l0.8-8.6h1c0.1,0.3,0.3,0.5,0.6,0.6c0.3,0.1,0.7,0.2,1.1,0.2h25.4c0.7,0,1.5-0.2,1.6-0.8h1l0.8,8.6h-0.9c-0.8-4.6-1.7-5.9-3.9-5.9
			h-9.2V122.9z"/>
		<path class="st0" d="M267.4,100.1c0-3.4-0.9-4.3-4-4.3h-1.1v-1c1.9-0.1,4.5-0.2,7.4-0.3c2.9-0.1,6.1-0.2,8.9-0.2
			c13.9,0,20.1,7.1,20.1,15.8c0,8-6.2,17.5-19.5,17.5h-16.9v-1h0.9c2.9,0,4.2-0.8,4.2-3.9V100.1z M271.8,123.8
			c0,2.2,0.2,2.9,4.3,2.9c7.1,0,10-1,13.3-4.3c2-1.9,4.4-6,4.4-11.4c0-3.9-1.1-8.2-4.2-11.4c-2.4-2.4-6.2-4.3-13.6-4.3
			c-2.2,0-3.6,0.2-4.2,0.2V123.8z"/>
		<path class="st0" d="M316.9,113.1l-3.1,8.3c-0.4,1-1.1,2.6-1.1,3.3c0,1.4,1.4,2,4.3,2h0.8v1h-12.2v-1c3.4-0.1,4-0.6,5.7-5.2
			l9.6-26.3l-0.5-1.2h4.6l11,29.3c1.1,2.8,2.2,3.3,4.8,3.3v1h-14.5v-1h1.4c3,0,4.1-0.3,4.1-1.8c0-0.8-0.4-1.6-0.6-2.2l-3.5-9.6
			H316.9z M322.2,98.5l-4.5,12.3h9.1L322.2,98.5z"/>
		<path class="st0" d="M358.6,122.8c0,3.2,1.3,4,4.2,4h1.2v1h-14.9v-1h0.9c3.1,0,4.2-0.8,4.2-4.4v-22.2c0-3.3-0.9-4.2-4-4.2h-1.2v-1
			c1.3,0,4.5-0.2,6.7-0.3c2.2-0.1,3.2-0.2,6.7-0.2c9.8,0,14.2,4,14.2,9.4c0,4-2.7,7.3-7,8.6c1.9,1.5,3.5,3,6,5.5l4.2,4.2
			c3.1,3.1,6.3,5.1,10.4,5.3v1c-9.2,0.4-11.6-1.6-16.3-6.3l-3.5-3.5c-2.3-2.3-4.2-3.9-5.4-4.7c-1.3,0.1-2.2,0.1-3.6,0.1
			c-1.2,0-1.8-0.1-2.7-0.1V122.8z M358.6,112.8c1.3,0.2,2.1,0.1,3.3,0.1c5.9,0,9.7-2.5,9.7-8.8c0-4.9-2.2-8.7-10.4-8.7
			c-1,0-1.7,0-2.6,0.1V112.8z"/>
		<path class="st0" d="M409.8,122.9c0,2.8,1,3.9,4.2,3.9h2v1h-16.6v-1h2c3.2,0,4.2-1,4.2-3.9V96.8h-9.2c-2.1,0-3.1,1.2-3.9,5.9h-0.9
			l0.8-8.6h1c0,0.3,0.3,0.5,0.6,0.6c0.3,0.1,0.7,0.2,1.1,0.2h25.4c0.7,0,1.5-0.2,1.6-0.8h1l0.8,8.6h-0.9c-0.8-4.6-1.7-5.9-3.9-5.9
			h-9.2V122.9z"/>
		<path class="st0" d="M454.3,127.7l-13.5-28.2h-0.1l-1.4,23.8c-0.2,2.7,1.9,3.3,4.2,3.4v1h-11v-1c3.9,0,4.3-0.8,4.6-5.6l1.3-20.6
			c0.2-3.5,0.1-4.4-3.2-4.6v-0.9h8l12.7,26.6l12.7-26.6h7.8v0.9c-2.6,0.2-3.6,0.3-3.5,2.1l1.7,23.9c0.3,4.9,0.7,4.9,4.6,4.9v1h-13.6
			v-1c2.5,0,4.9-0.7,4.7-3.5l-1.5-23.7h-0.1l-13.1,28.2H454.3z"/>
		<path class="st0" d="M506,128.6c-10.4,0-19.1-6.7-19.1-16.5c0-10.5,8.1-18,19.3-18c10,0,18.5,6.8,18.5,16.3
			C524.8,121.1,516.2,128.6,506,128.6z M504.9,95.4c-9.3,0-13,8.7-13,15c0,9.9,6.7,16.8,15.2,16.8c8.6,0,12.7-7.6,12.7-15.1
			C519.8,102.3,513.6,95.4,504.9,95.4z"/>
		<path class="st0" d="M574.2,94.9v1c-3.5,0.1-4.8,1.5-4.8,4.9V115c0,6.6-4.2,13.6-15.6,13.6c-10.1,0-15.3-5.8-15.3-13.3V99.8
			c0-3.4-0.9-3.9-4.5-4v-1h13.6v1h-0.5c-2.9,0-4.2,0.8-4.2,3.9v14.7c0,7.1,4.2,11.4,12,11.4c6,0,12-2.5,12-11.5V102
			c0-5.1-0.8-6-5.2-6.2v-1H574.2z"/>
		<path class="st0" d="M602.1,122.9c0,2.8,1,3.9,4.2,3.9h1.9v1h-16.6v-1h2c3.2,0,4.2-1,4.2-3.9V96.8h-9.2c-2.1,0-3.1,1.2-3.9,5.9h-1
			l0.8-8.6h1c0,0.3,0.3,0.5,0.6,0.6c0.3,0.1,0.7,0.2,1.1,0.2h25.4c0.7,0,1.5-0.2,1.6-0.8h1l0.8,8.6h-1c-0.8-4.6-1.7-5.9-3.9-5.9
			h-9.2V122.9z"/>
		<path class="st0" d="M634.5,112v10c0,3.4,0.7,4.6,4.2,4.6h0.2v1h-13.3v-1h0.3c3.1,0,4.2-0.8,4.2-3.9V99.6c0-2.7-0.9-3.5-3.8-3.7
			v-1h12.6v1c-3.7,0-4.4,1-4.4,5.1v9.2h20.7V99.7c0-2.8-0.9-3.9-4.2-3.9h-1v-1h13.6v1c-3.2,0.1-4,1.1-4,4.3v21.9
			c0,3.7,1.1,4.6,4.2,4.6h0.5v1h-14.9v-1h1.6c3.4,0,4.2-1.2,4.2-4V112H634.5z"/>
		<polygon class="st1" points="125.7,43.4 16.1,82.1 10.3,97.1 125.7,44.9 		"/>
		<polygon class="st1" points="125.7,50 43.2,113.4 56.5,117 125.7,52.7 		"/>
		<polygon class="st1" points="125.7,57.5 93.5,112.5 105.2,114 125.7,58.7 		"/>
		<polygon class="st1" points="125.7,38.4 3.2,38.3 3.2,48.5 125.7,39.8 		"/>
		<g>
			<path class="st1" d="M113.1,112c-16.5-4.1-27-1.4-36.2,1c-4.7,1.2-8.8,2.3-13.2,2.3c-4.4,0-8.5-1.1-13.2-2.3
				c-9.1-2.4-19.5-5.1-35.9-1l1.2,4.9c15.1-3.7,24.9-1.2,33.4,1c4.8,1.3,9.4,2.5,14.5,2.5c5,0,9.6-1.2,14.5-2.5
				c8.6-2.2,18.4-4.8,33.7-1L113.1,112z"/>
		</g>
		<g>
			<path class="st1" d="M101.9,121.3c-11.2-1.5-19,0.5-25.9,2.3c-4.4,1.1-8.1,2.1-12.2,2.1c-4.1,0-7.8-1-12.2-2.1
				c-7.2-1.9-15.3-4-27-2.2l0.7,4.6c10.8-1.6,18.1,0.3,25.2,2.1c4.5,1.2,8.7,2.3,13.4,2.3c4.7,0,8.9-1.1,13.4-2.3
				c6.8-1.8,13.9-3.6,24.2-2.2L101.9,121.3z"/>
		</g>
		<path class="st1" d="M30.3,112.8V98h-23c11.8-24.2,25-75.8,28-92.2C38,22.3,51.6,74.5,63.3,98h-23v14.8H30.3z"/>
		<g>
			<path class="st1" d="M53.1,18.8h-2.7v-1.7l5.4-0.8v12.8h-2.7V18.8z"/>
			<path class="st1" d="M75.8,16.9c0.4,0.4,0.6,1,0.6,2V20c0,0.7-0.2,1.3-0.5,1.6c-0.4,0.4-1,0.6-1.9,0.8c0.9,0.1,1.6,0.4,2.1,0.8
				c0.4,0.4,0.7,1,0.7,1.8v1.3c0,1-0.2,1.8-0.7,2.2c-0.4,0.4-1.3,0.6-2.4,0.6h-8.1c-1.2,0-1.9-0.2-2.4-0.6c-0.5-0.4-0.7-1.1-0.7-2.2
				V25c0-0.8,0.2-1.4,0.7-1.8c0.4-0.4,1.1-0.7,2-0.8c-0.9-0.2-1.5-0.4-1.9-0.8c-0.4-0.4-0.5-0.9-0.5-1.6v-1.2c0-1,0.2-1.6,0.6-2
				c0.4-0.3,1.2-0.5,2.3-0.5h7.9C74.6,16.4,75.4,16.6,75.8,16.9z M66.3,23.6c-0.5,0-0.8,0.1-1,0.2C65.1,24,65,24.3,65,24.7v0.9
				c0,0.5,0.1,0.8,0.2,0.9c0.2,0.2,0.5,0.2,1,0.2h6.5c0.5,0,0.8-0.1,1-0.2c0.2-0.1,0.2-0.4,0.2-0.9v-0.9c0-0.5-0.1-0.8-0.2-0.9
				c-0.1-0.1-0.5-0.2-1-0.2H66.3z M66.6,18.6c-0.5,0-0.8,0.1-1,0.2c-0.2,0.2-0.2,0.5-0.2,0.9v0.6c0,0.5,0.1,0.8,0.2,0.9
				c0.2,0.2,0.5,0.2,1,0.2h5.9c0.5,0,0.8-0.1,1-0.2c0.2-0.2,0.2-0.5,0.2-0.9v-0.6c0-0.5-0.1-0.8-0.2-0.9c-0.2-0.1-0.5-0.2-1-0.2
				H66.6z"/>
			<path class="st1" d="M87.1,21.1C88,21,89,21,89.9,21c2,0,3.5,0.2,4.2,0.7c0.8,0.5,1.2,1.3,1.2,2.6V26c0,1.1-0.4,1.8-1.1,2.3
				c-0.7,0.5-1.8,0.8-3.3,0.8h-5.4c-1.6,0-2.7-0.3-3.3-0.8c-0.6-0.6-0.9-1.6-0.9-3.1v-1.7c0-2.4,0.8-4.2,2.5-5.5
				c1.6-1.3,3.9-2,6.9-2c0.1,0,0.2,0,0.4,0c0.1,0,0.3,0,0.5,0.1l1.8,2h-0.8c-2.7,0-4.7,0.3-5.9,0.7c-1.2,0.5-2,1.3-2.4,2.5
				C85.2,21.3,86.2,21.2,87.1,21.1z M84,23.7c0,0.1,0,0.2,0,0.4c0,1.2,0.2,2,0.5,2.3c0.3,0.3,1,0.4,2.1,0.4h3.5
				c0.9,0,1.5-0.1,1.8-0.3c0.3-0.2,0.5-0.6,0.5-1.2v-0.7c0-0.6-0.2-1-0.6-1.2c-0.4-0.2-1.1-0.3-2.2-0.3c-0.9,0-1.8,0-2.8,0.1
				c-1,0-1.9,0.1-2.9,0.2C84,23.5,84,23.6,84,23.7z"/>
			<path class="st1" d="M108.9,18.6h-8.4v2.7l-2.7-0.5v-4.4h14.1v2l-6.7,10.9H102L108.9,18.6z"/>
		</g>
		<path class="st1" d="M0,0v87.2c0,28.8,37.7,53.1,63.9,61.2c26.2-8.1,63.9-32.4,63.9-61.2V0L0,0z M122.5,87.2
			c0,21.2-24,37.3-45.8,46.5c-2.8,1.1-9,2.3-12.9,2.3c-4.1,0-10.7-1.5-13-2.4h0c-21.8-9.2-45.5-25.3-45.5-46.4c0,0,0-72.3,0-76.6
			c7.8-1.4,34.2-6.4,58.3-6.4c24.1,0,51.2,4.7,58.9,6.4C122.5,14.9,122.5,87.2,122.5,87.2z"/>
	</g>
	<line class="st2" x1="715.9" y1="4.3" x2="715.9" y2="130.5"/>
	<g>
		<path class="st3" d="M808.5,31.8c0,14.6-8.5,23.6-21.7,23.6s-21.7-9-21.7-23.6s8.4-23.6,21.7-23.6S808.5,17.2,808.5,31.8z
			 M777,31.8c0,8.6,3.5,14,9.8,14c6.3,0,9.9-5.4,9.9-14s-3.5-14-9.9-14C780.5,17.8,777,23.2,777,31.8z"/>
		<path class="st3" d="M824.9,26.4c1.3-4.1,5.3-7.2,10.4-7.2c8.8,0,14,7.2,14,17.6c0,11.4-5.9,18.5-14.6,18.5c-4.6,0-8-2.1-9.5-5
			v17.7H814v-48h9.6L824.9,26.4z M825.2,40.1c0,4.9,2.7,7.2,5.9,7.2c4.2,0,6.5-3.5,6.5-9.9c0-6.1-2.5-9.3-6.4-9.3
			c-3.3,0-6.1,2.8-6.1,8V40.1z"/>
		<path class="st3" d="M875.5,42.7l9.1,3.1c-2.1,6.7-8.3,9.6-15,9.6c-10.4,0-17-6.6-17-17.7c0-11.2,6.5-18.4,17.3-18.4
			c10.1,0,15,6.9,15,15.5c0,1.4-0.3,3.4-0.6,4.6h-20.9c0.1,4.9,2.7,7.8,6.5,7.8C872.6,47.1,874.6,45.7,875.5,42.7z M874.4,34
			c0.1-0.5,0.1-1,0.1-1.6c0-2.8-1.7-5.2-4.9-5.2c-3.5,0-5.8,2.6-6.1,6.8H874.4z"/>
		<path class="st3" d="M913.1,30.9c-1.1-0.5-2.7-0.8-4.3-0.8c-4.1,0-7.5,2.7-7.5,8.5v15.9h-11.2V20.1h9.7l1.3,7.8
			c1.4-5.9,6-9.5,12.5-8.4L913.1,30.9z"/>
		<path class="st3" d="M946.1,44.6c0,1.8,1,2.4,2.2,2.4c0.8,0,1.4-0.3,1.9-0.7l0.4,7.3c-1.6,1.1-3.9,1.7-6.2,1.7
			c-3.1,0-5.6-1.2-7.1-3.1c-0.5-0.6-0.9-1.4-1.2-2.2c-1.4,3.3-5.4,5.4-9.9,5.4c-6.5,0-10.9-3.7-10.9-10c0-6.9,5.9-10.7,15.7-10.7
			c1.4,0,3.1,0.1,4.3,0.2v-3.5c0-2.5-1.3-4-3.9-4c-2.7,0-4.1,1.7-4.1,4.6L917,30.5c0.6-6.9,6.1-11.2,14.9-11.2
			c9.8,0,14.2,4.3,14.2,11.6V44.6z M935.3,40.3c-0.6-0.1-1.5-0.1-2.4-0.1c-4.5,0-6.8,1.4-6.8,4.2c0,2.2,1.5,3.6,4.1,3.6
			c2.5,0,5.1-1.5,5.1-5.7V40.3z"/>
		<path class="st3" d="M977,52.5c-2.5,1.8-5.8,2.9-9.4,2.9c-7.3,0-12.3-3.5-12.3-11.6V28.3h-4.4v-8.2h4.5v-7.3l11.2-1.4v8.7h8.9v8.2
			h-9v13.9c0,2.9,1.4,4.2,3.9,4.2c1.8,0,3.4-0.5,5.2-1.8L977,52.5z"/>
		<path class="st3" d="M987,16.4c-3.4,0-6.5-2.2-6.5-6c0-3.9,3.1-6.1,6.5-6.1c3.4,0,6.5,2.2,6.5,6.1C993.5,14.2,990.4,16.4,987,16.4
			z M992.6,20.1v34.5h-11.2V20.1H992.6z"/>
		<path class="st3" d="M1014.8,55.4c-10.4,0-17.4-6.5-17.4-18.1c0-11.6,7-18.1,17.4-18.1c10.3,0,17.3,6.5,17.3,18.1
			C1032.1,48.9,1025.1,55.4,1014.8,55.4z M1014.8,27.5c-4.3,0-6.2,3.5-6.2,9.9c0,6.3,1.9,9.8,6.2,9.8c4.2,0,6.1-3.5,6.1-9.8
			C1020.9,31,1019,27.5,1014.8,27.5z"/>
		<path class="st3" d="M1048.2,26.7c1.7-4.8,5.9-7.4,11-7.4c6.2,0,10.8,3.8,10.8,11.2v24.1h-11.2V34.1c0-3.4-1.2-5.4-4.5-5.4
			c-3.1,0-5.8,2-5.8,7.3v18.7h-11.2V20.1h9.6L1048.2,26.7z"/>
		<path class="st3" d="M1083.6,43.9c0.5,2.5,2.8,4.2,5.7,4.2c2.9,0,4.7-1.1,4.7-3.3c0-6-18.6-0.6-18.6-14c0-7.6,6.5-11.6,14.6-11.6
			c8.2,0,13.3,3.6,14.3,10l-9.3,1.1c-0.3-2.4-2-4-4.9-4c-2.6,0-4.2,1.2-4.2,3.3c0,6.1,18.7,0.4,18.7,14.2c0,7.5-6.4,11.5-15.4,11.5
			c-7.5,0-13.5-3.1-15-9.4L1083.6,43.9z"/>
		<path class="st0" d="M799.2,126.5c-1-1.2-1.6-2.5-2.1-4.5l-1.9-8.1c-1.3-5.4-4.2-7.4-10.3-7.4h-11.1v20h-4V81h16.7
			c10.2,0,14.9,4.6,14.9,12.5c0,7.2-5.2,11.2-10.8,11.4v0.1c4.5,0.5,7.2,2.7,8.4,7.6l2.2,8.9c0.5,2,1.4,3.5,2.5,4.9H799.2z
			 M786.3,84.4h-12.5V103h12.5c7.2,0,10.8-3.3,10.8-9.4C797,87.7,793.6,84.4,786.3,84.4z"/>
		<path class="st0" d="M831.1,117l3.5,1c-1.5,6.4-6.5,9.2-12.5,9.2c-9,0-14.7-6.1-14.7-17.7c0-11,5.9-17.7,14.7-17.7
			c8.2,0,12.7,5.9,12.7,13.6c0,1.8-0.2,3.2-0.5,4.3h-23.1c0.1,9,4.1,14.3,10.9,14.3C826.8,123.9,830.1,121.7,831.1,117z
			 M830.9,106.6c0.1-0.6,0.1-1.4,0.1-2c0-5.4-3.1-9.8-8.9-9.8c-6.1,0-10,4.6-10.6,11.9H830.9z"/>
		<path class="st0" d="M842.8,116.9c0.8,4.6,4.6,7.2,9.5,7.2c5,0,8.5-2.3,8.5-6.5c0-10.1-20.1-3.1-20.1-16.2c0-6.1,5-9.7,11.4-9.7
			c6.9,0,11.1,3.1,11.9,9.3l-3.7,0.5c-0.7-4.3-3.3-6.7-8.2-6.7c-4.5,0-7.7,2.3-7.7,6.3c0,9.9,20.1,2.7,20.1,16.3
			c0,6.1-5.2,9.7-12.3,9.7c-6.8,0-12-3.3-13.1-9.3L842.8,116.9z"/>
		<path class="st0" d="M892.8,117l3.5,1c-1.5,6.4-6.5,9.2-12.5,9.2c-9,0-14.7-6.1-14.7-17.7c0-11,5.9-17.7,14.7-17.7
			c8.2,0,12.7,5.9,12.7,13.6c0,1.8-0.2,3.2-0.5,4.3h-23.1c0.1,9,4.1,14.3,10.9,14.3C888.4,123.9,891.7,121.7,892.8,117z
			 M892.5,106.6c0.1-0.6,0.1-1.4,0.1-2c0-5.4-3.1-9.8-8.9-9.8c-6.1,0-10,4.6-10.6,11.9H892.5z"/>
		<path class="st0" d="M925.8,120.1c0,2.6,1,3.7,2.8,3.7c0.7,0,1.4-0.3,2-0.7l0.3,3.1c-0.8,0.5-2,0.8-3.1,0.8c-2.5,0-4.3-1.2-5-3.4
			c-0.3-0.9-0.5-2-0.6-3.1c-1.4,4.2-5.9,6.6-10.4,6.6c-6.1,0-10.6-3.5-10.6-9.5c0-6.8,5.7-10.8,16.4-10.8c1.2,0,2.9,0.1,4.4,0.3
			v-4.4c0-5.3-2.9-7.8-7.8-7.8c-4.6,0-7.6,2.3-7.8,7l-3.9-0.7c0.7-6.5,5.9-9.6,11.9-9.6c6.8,0,11.3,3.2,11.3,10.6V120.1z
			 M922.1,110.2c-1.3-0.2-2.9-0.3-4.4-0.3c-7.8,0-12.5,2.4-12.5,7.6c0,4,2.8,6.5,7.4,6.5c4.8,0,9.5-3.1,9.5-10.2V110.2z"/>
		<path class="st0" d="M952.4,96.1c-0.7-0.3-1.7-0.3-2.7-0.3c-5.8,0-9.6,5.4-9.6,13.3v17.4h-3.9V92.4h3.1l0.6,9.3
			c1.2-6.3,6.1-11,12.8-9.7L952.4,96.1z"/>
		<path class="st0" d="M969.6,91.7c7.1,0,11.6,4.2,12.3,10.8l-3.6,0.7c-0.4-4.8-3.3-8.2-8.6-8.2c-6.9,0-10.6,5.8-10.6,14.5
			s3.7,14.5,10.8,14.5c5.2,0,8.1-3.4,8.5-8.3l3.7,0.6c-0.9,6.9-5.2,10.9-12.2,10.9c-9.1,0-14.7-6.6-14.7-17.7
			C955,98.3,960.7,91.7,969.6,91.7z"/>
		<path class="st0" d="M992.5,99.3c1.8-4.6,5.9-7.6,11.4-7.6c6.1,0,10.5,3.7,10.5,11v23.8h-4v-22.9c0-5.3-2.7-8.4-7.6-8.4
			c-5.5,0-10.3,3.8-10.3,11.9v19.3h-3.9V77.3h3.9V99.3z"/>
		<path class="st0" d="M1072.7,104v22.5h-3.3l-0.7-8.1c-1.5,5.3-6.8,8.8-13.4,8.8c-11.5,0-19.6-8.3-19.6-23.4
			c0-15.1,8.5-23.5,20.1-23.5c8.2,0,13.6,3.6,16.4,10.7l-3.6,2c-1.9-5.9-6.4-9.2-12.8-9.2c-9.9,0-15.8,7.7-15.8,20
			c0,12,5.6,20,15.7,20c7.1,0,12.9-4.2,12.9-13.1v-3.1h-12.4V104H1072.7z"/>
		<path class="st0" d="M1097.8,96.1c-0.7-0.3-1.7-0.3-2.7-0.3c-5.8,0-9.6,5.4-9.6,13.3v17.4h-3.9V92.4h3.1l0.6,9.3
			c1.2-6.3,6.1-11,12.8-9.7L1097.8,96.1z"/>
		<path class="st0" d="M1115.1,127.1c-8.8,0-14.7-6.4-14.7-17.7c0-11.3,5.9-17.7,14.7-17.7c8.8,0,14.7,6.4,14.7,17.7
			C1129.8,120.7,1123.9,127.1,1115.1,127.1z M1115.1,94.8c-6.7,0-10.8,5.2-10.8,14.6c0,9.3,4,14.6,10.8,14.6
			c6.7,0,10.7-5.2,10.7-14.6C1125.8,100,1121.9,94.8,1115.1,94.8z"/>
		<path class="st0" d="M1158.3,119c-1.4,5.1-5.6,8.2-11.2,8.2c-5.8,0-10.5-3.3-10.5-10.9V92.4h3.9v23.2c0,5.4,2.8,8.2,7.5,8.2
			c5.6,0,9.9-4,9.9-12.1V92.4h4v34.1h-3.1L1158.3,119z"/>
		<path class="st0" d="M1174.6,99.9c1.2-4.4,5.7-8.2,11.3-8.2c9,0,14.1,7.2,14.1,17.5c0,10.6-5.7,17.9-14.6,17.9
			c-5.4,0-9.2-3.2-10.4-6.7v19.6h-3.9V92.4h3L1174.6,99.9z M1175,112.8c0,7.7,5.1,11.2,9.9,11.2c6.3,0,11-5,11-14.7
			c0-9.3-4.3-14.3-10.8-14.3c-5,0-10.2,3.8-10.2,12.2V112.8z"/>
	</g>
</g>
</svg>
