<?xml version="1.0" encoding="utf-8"?>
<!-- Generator: Adobe Illustrator 22.1.0, SVG Export Plug-In . SVG Version: 6.00 Build 0)  -->
<svg version="1.1" id="Layer_1" xmlns="http://www.w3.org/2000/svg" xmlns:xlink="http://www.w3.org/1999/xlink" x="0px" y="0px"
	 viewBox="0 0 1152 101.2" style="enable-background:new 0 0 1152 101.2;" xml:space="preserve">
<style type="text/css">
	.st0{fill:#013745;}
	.st1{font-family:'BemboStd-Semibold';}
	.st2{font-size:72px;}
	.st3{fill:#006937;}
</style>
<text transform="matrix(1 0 0 1 121.8242 74.1565)" class="st0 st1 st2">DARTMOUTH ENGINEERING</text>
<g>
	<polygon class="st3" points="85.7,29.6 11,56 7,66.2 85.7,30.6 	"/>
	<polygon class="st3" points="85.7,34.1 29.5,77.3 38.6,79.8 85.7,35.9 	"/>
	<polygon class="st3" points="85.7,39.2 63.8,76.7 71.8,77.8 85.7,40 	"/>
	<polygon class="st3" points="85.7,26.2 2.2,26.1 2.2,33.1 85.7,27.2 	"/>
	<g>
		<path class="st3" d="M77.2,76.4c-11.3-2.8-18.4-1-24.7,0.7c-3.2,0.8-6,1.6-9,1.6c-3,0-5.8-0.7-9-1.6c-6.2-1.6-13.3-3.5-24.5-0.7
			l0.8,3.3c10.3-2.5,17-0.8,22.8,0.7c3.3,0.9,6.4,1.7,9.9,1.7c3.4,0,6.6-0.8,9.9-1.7c5.9-1.5,12.5-3.3,23-0.7L77.2,76.4z"/>
	</g>
	<g>
		<path class="st3" d="M69.5,82.8c-7.6-1-13,0.4-17.7,1.6c-3,0.8-5.6,1.4-8.3,1.4s-5.4-0.7-8.3-1.4c-4.9-1.3-10.4-2.7-18.5-1.5
			l0.5,3.1c7.4-1.1,12.4,0.2,17.2,1.4c3.1,0.8,5.9,1.5,9.1,1.5c3.2,0,6.1-0.8,9.1-1.5c4.7-1.2,9.5-2.5,16.5-1.5L69.5,82.8z"/>
	</g>
	<path class="st3" d="M20.6,77V66.8H4.9C13,50.3,22,15.1,24.1,3.9c1.9,11.3,11.1,46.9,19.1,62.9H27.5V77H20.6z"/>
	<g>
		<path class="st3" d="M36.2,12.8h-1.9v-1.2l3.7-0.6v8.8h-1.8V12.8z"/>
		<path class="st3" d="M51.7,11.5c0.3,0.3,0.4,0.7,0.4,1.3v0.8c0,0.5-0.1,0.9-0.4,1.1c-0.3,0.3-0.7,0.4-1.3,0.6
			c0.6,0.1,1.1,0.3,1.4,0.5c0.3,0.3,0.5,0.7,0.5,1.2V18c0,0.7-0.2,1.2-0.5,1.5c-0.3,0.3-0.9,0.4-1.6,0.4h-5.6
			c-0.8,0-1.3-0.1-1.6-0.4c-0.3-0.3-0.5-0.8-0.5-1.5v-0.9c0-0.5,0.2-0.9,0.5-1.2c0.3-0.3,0.8-0.5,1.4-0.5c-0.6-0.1-1-0.3-1.3-0.6
			c-0.3-0.3-0.4-0.6-0.4-1.1v-0.8c0-0.7,0.1-1.1,0.4-1.3c0.3-0.2,0.8-0.4,1.6-0.4h5.4C50.9,11.2,51.4,11.3,51.7,11.5z M45.2,16.1
			c-0.3,0-0.6,0.1-0.7,0.2c-0.1,0.1-0.2,0.3-0.2,0.6v0.6c0,0.3,0,0.5,0.2,0.6c0.1,0.1,0.3,0.2,0.7,0.2h4.4c0.3,0,0.6-0.1,0.7-0.2
			c0.1-0.1,0.2-0.3,0.2-0.6v-0.6c0-0.3,0-0.5-0.2-0.6c-0.1-0.1-0.3-0.2-0.7-0.2H45.2z M45.4,12.7c-0.3,0-0.6,0.1-0.7,0.2
			c-0.1,0.1-0.2,0.3-0.2,0.6v0.4c0,0.3,0.1,0.5,0.2,0.6c0.1,0.1,0.3,0.2,0.7,0.2h4.1c0.3,0,0.5-0.1,0.7-0.2c0.1-0.1,0.2-0.3,0.2-0.6
			v-0.4c0-0.3-0.1-0.5-0.2-0.6c-0.1-0.1-0.3-0.2-0.7-0.2H45.4z"/>
		<path class="st3" d="M59.4,14.4c0.6-0.1,1.3-0.1,1.9-0.1c1.4,0,2.4,0.2,2.9,0.5c0.5,0.3,0.8,0.9,0.8,1.8v1.2
			c0,0.7-0.3,1.3-0.7,1.6c-0.5,0.4-1.2,0.5-2.3,0.5h-3.7c-1.1,0-1.9-0.2-2.3-0.6c-0.4-0.4-0.6-1.1-0.6-2.1V16c0-1.6,0.6-2.9,1.7-3.8
			c1.1-0.9,2.7-1.3,4.7-1.3c0.1,0,0.2,0,0.3,0c0.1,0,0.2,0,0.4,0l1.2,1.4h-0.6c-1.9,0-3.2,0.2-4,0.5c-0.8,0.3-1.4,0.9-1.7,1.7
			C58.1,14.5,58.8,14.5,59.4,14.4z M57.3,16.2c0,0.1,0,0.2,0,0.3c0,0.8,0.1,1.4,0.3,1.5c0.2,0.2,0.7,0.3,1.5,0.3h2.4
			c0.6,0,1-0.1,1.2-0.2c0.2-0.2,0.3-0.4,0.3-0.8v-0.5c0-0.4-0.1-0.7-0.4-0.8c-0.3-0.2-0.8-0.2-1.5-0.2c-0.6,0-1.2,0-1.9,0.1
			c-0.7,0-1.3,0.1-2,0.2C57.3,16,57.3,16.1,57.3,16.2z"/>
		<path class="st3" d="M74.3,12.7h-5.7v1.9l-1.8-0.3v-3h9.6v1.4L71.8,20h-2.2L74.3,12.7z"/>
	</g>
	<path class="st3" d="M0,0v59.5c0,19.6,25.7,36.2,43.6,41.7c17.9-5.5,43.6-22.1,43.6-41.7V0L0,0z M83.6,59.5
		c0,14.5-16.3,25.5-31.2,31.7c-1.9,0.7-6.1,1.6-8.8,1.6c-2.8,0-7.3-1-8.9-1.7h0c-14.8-6.3-31-17.2-31-31.7c0,0,0-49.3,0-52.3
		c5.3-1,23.3-4.3,39.8-4.3c16.5,0,34.9,3.2,40.2,4.4C83.6,10.2,83.6,59.5,83.6,59.5z"/>
</g>
</svg>
